<svg id="visual" viewBox="0 0 1920 1080" width="1920" height="1080" xmlns="http://www.w3.org/2000/svg" xmlns:xlink="http://www.w3.org/1999/xlink" version="1.1"><path d="M0 736L45.7 732.5C91.3 729 182.7 722 274.2 729.7C365.7 737.3 457.3 759.7 548.8 784.8C640.3 810 731.7 838 823 838.5C914.3 839 1005.7 812 1097 812.2C1188.3 812.3 1279.7 839.7 1371.2 841.3C1462.7 843 1554.3 819 1645.8 805.7C1737.3 792.3 1828.7 789.7 1874.3 788.3L1920 787L1920 1081L1874.3 1081C1828.7 1081 1737.3 1081 1645.8 1081C1554.3 1081 1462.7 1081 1371.2 1081C1279.7 1081 1188.3 1081 1097 1081C1005.7 1081 914.3 1081 823 1081C731.7 1081 640.3 1081 548.8 1081C457.3 1081 365.7 1081 274.2 1081C182.7 1081 91.3 1081 45.7 1081L0 1081Z" fill="#0066FF" stroke-linecap="round" stroke-linejoin="miter"></path></svg>